<svg xmlns="http://www.w3.org/2000/svg" width="303.698" height="50.616" viewBox="0 0 303.698 50.616">
  <g id="_00_logo" data-name="00_logo" transform="translate(-22 -445.915)">
    <path id="패스_1" data-name="패스 1" d="M65.517,475.281a.94.94,0,0,0-.036-.091l-3.5-7.612h.036L60.042,463.3c-.018,0-.027.009-.045.009L54.9,452.181a2.634,2.634,0,0,0-2.51-1.719,2.561,2.561,0,0,0-2.537,1.764l-5.32,11.759a24.6,24.6,0,0,0-7.075-1.01c-7.685,0-15.461,4.693-15.461,13.678a8.89,8.89,0,0,0,8.976,8.776c6.393,0,10.058-3.383,15.115-13.942l.782-1.755c.009.009.018.009.027.018l1.846-4.074a.034.034,0,0,1-.027-.009l3.674-8.14,3.338,7.421,2.41,5.175-.009.091,2.938,6.557a2.519,2.519,0,0,0,2.41,1.437,1.982,1.982,0,0,0,2.219-1.992A2.887,2.887,0,0,0,65.517,475.281ZM41.78,470.133c-3.556,7.885-6.366,10.677-10.741,10.677a4.17,4.17,0,0,1-4.256-4.229c0-6.684,5.748-9.058,10.677-9.058a21.387,21.387,0,0,1,5.2.628Z" transform="translate(0 -0.412)" fill="#3b1f13"/>
    <path id="패스_2" data-name="패스 2" d="M87.5,474.212a1.345,1.345,0,0,0-.386-.055H76.731V456.688c0-.445-.167-1.894-2.324-1.894-1.809,0-2.291,1.19-2.291,1.894v19.99a1.906,1.906,0,0,0,1.926,1.927H87.115a1.341,1.341,0,0,0,.313-.036,2.181,2.181,0,0,0,1.614-2.188A2.233,2.233,0,0,0,87.5,474.212Z" transform="translate(-4.538 0.204)" fill="#3b1f13"/>
    <path id="패스_3" data-name="패스 3" d="M107.374,454.831a1.332,1.332,0,0,0-.312-.037H94.75a1.884,1.884,0,0,0-1.926,1.927v19.957a2.029,2.029,0,0,0,2.291,1.927c1.834,0,2.324-1.21,2.324-1.927V471.49h7.373a1.341,1.341,0,0,0,.313-.036,2.291,2.291,0,0,0,0-4.377,1.392,1.392,0,0,0-.313-.036H97.439V459.21h9.624a1.331,1.331,0,0,0,.312-.036,2.267,2.267,0,0,0,0-4.343Z" transform="translate(-7.434 0.204)" fill="#3b1f13"/>
    <path id="패스_4" data-name="패스 4" d="M122.986,454.394a12.108,12.108,0,0,0-11.856,12.319c0,6.929,5.1,12.154,11.856,12.154,6.74,0,11.823-5.225,11.823-12.154A12.093,12.093,0,0,0,122.986,454.394Zm0,20.023c-3.6,0-7.241-2.646-7.241-7.7,0-4.56,3.046-7.87,7.241-7.87s7.241,3.31,7.241,7.87C130.227,471.106,127.113,474.417,122.986,474.417Z" transform="translate(-9.389 0.223)" fill="#3b1f13"/>
    <path id="패스_5" data-name="패스 5" d="M158.151,454.794a2.007,2.007,0,0,0-2.191,1.894v13.383L144.472,455.69a2.489,2.489,0,0,0-2.008-.9,2.053,2.053,0,0,0-2.291,1.927v19.957a1.975,1.975,0,0,0,2.192,1.927,2,2,0,0,0,2.191-1.927v-13.6L156.3,477.53a2.365,2.365,0,0,0,1.985,1.075,1.878,1.878,0,0,0,2.06-1.861V456.688A2.008,2.008,0,0,0,158.151,454.794Z" transform="translate(-12.427 0.204)" fill="#3b1f13"/>
    <path id="패스_6" data-name="패스 6" d="M175.539,464.257c-3.145-.923-5.054-1.591-5.054-3.071,0-1.932,2.745-2.442,4.2-2.442,1.939,0,2.971.668,2.971,1.151a.777.777,0,0,1-.136.537,2.051,2.051,0,0,0-.359,1.118,1.867,1.867,0,0,0,2.025,1.827,3.522,3.522,0,0,0,3.052-3.581c0-3.079-3.247-5.4-7.553-5.4-5.168,0-8.778,2.929-8.778,7.123,0,4.53,4.438,5.832,8,6.878,3.216.943,5.168,1.629,5.168,3.184,0,2.006-2.473,2.9-4.925,2.9-2.057,0-4.46-.484-4.46-1.846a1.4,1.4,0,0,1,.227-.628,2.477,2.477,0,0,0,.367-1.193,1.962,1.962,0,0,0-1.993-1.926c-1.274,0-3.118,1.452-3.118,4.078,0,3.659,3.465,5.931,9.043,5.931,6.486,0,9.44-3.932,9.44-7.587C183.658,466.64,179.156,465.318,175.539,464.257Z" transform="translate(-15.044 0.224)" fill="#3b1f13"/>
    <path id="패스_7" data-name="패스 7" d="M222.052,454.794a2.319,2.319,0,0,0-2.011,1.081l-8.982,15.632-8.534-15.582a2.3,2.3,0,0,0-2.184-1.131,2.026,2.026,0,0,0-2.192,1.927v19.957c0,.322.107,1.927,2.224,1.927S202.6,477,202.6,476.678V465.532l6.377,11.574.01.017a2.132,2.132,0,0,0,3.733.1c.015-.023.04-.061.054-.084l6.791-11.632v11.175c0,.58.226,1.927,2.324,1.927,2.18,0,2.291-1.605,2.291-1.927V456.655A1.94,1.94,0,0,0,222.052,454.794Z" transform="translate(-18.577 0.204)" fill="#3b1f13"/>
    <path id="패스_8" data-name="패스 8" d="M248.7,454.794c-2.116,0-2.224,1.578-2.224,1.894v13.669c0,2.47-2.365,4.13-5.885,4.13-3.486,0-5.651-1.582-5.651-4.13V456.688c0-.316-.113-1.894-2.325-1.894a2.016,2.016,0,0,0-2.291,1.894v13.735c0,4.213,3.527,8.48,10.267,8.48,5.891,0,10.334-3.646,10.334-8.48V456.688A1.959,1.959,0,0,0,248.7,454.794Z" transform="translate(-21.911 0.217)" fill="#3b1f13"/>
    <path id="패스_9" data-name="패스 9" d="M274.984,471.406a2.235,2.235,0,0,0-1.68.754,7.156,7.156,0,0,1-5.5,2.291c-1.691,0-7.207-.544-7.207-7.539,0-7.02,4.371-8.069,6.976-8.069,1.868,0,3.865.686,3.865,2.607a1.281,1.281,0,0,1-.125.484,2.4,2.4,0,0,0-.207.907,2.04,2.04,0,0,0,2.225,2.026c1.369,0,2.754-1.242,2.754-3.615,0-3.91-3.66-6.858-8.512-6.858-8.008,0-11.592,6.254-11.592,12.452,0,8.327,5.939,12.054,11.823,12.054a11.631,11.631,0,0,0,8.537-3.679,2.56,2.56,0,0,0,.671-1.723A2.014,2.014,0,0,0,274.984,471.406Z" transform="translate(-24.615 0.224)" fill="#3b1f13"/>
    <path id="패스_10" data-name="패스 10" d="M316.422,452.165a28.362,28.362,0,0,0,9.177,1.906,12.872,12.872,0,0,0,10.525-4.815,2.387,2.387,0,0,0,.471-1.349,2.168,2.168,0,0,0-2.159-1.992,2.035,2.035,0,0,0-1.591.738l-.081.1c-1.49,1.872-4.034,2.9-7.165,2.9a27.193,27.193,0,0,1-8.343-1.767,26.752,26.752,0,0,0-8.171-1.742c-6.578,0-10.664,3.605-10.664,9.407v10.021H287.38v-9.69c0-.717-.489-1.927-2.325-1.927a2.029,2.029,0,0,0-2.291,1.927v19.99a2.029,2.029,0,0,0,2.291,1.927c1.835,0,2.325-1.21,2.325-1.927v-5.85h11.04v5.85a2.029,2.029,0,0,0,2.291,1.927c1.834,0,2.324-1.21,2.324-1.927V455.553c0-3.38,1.935-5.024,5.918-5.024A23.846,23.846,0,0,1,316.422,452.165Z" transform="translate(-28.241 0)" fill="#3b1f13"/>
    <path id="패스_11" data-name="패스 11" d="M342.471,477.859a36.525,36.525,0,0,0-9.686,1.254,152.969,152.969,0,0,1-7.152-13.582l-4.571-9.6A2.238,2.238,0,0,0,319,454.394a2.33,2.33,0,0,0-2.1,1.515L307.757,475.5a2.282,2.282,0,0,0-.243,1.04,2.072,2.072,0,0,0,2.158,2.026,2.41,2.41,0,0,0,2.4-1.623l1.456-3.176h11.305c1.478,2.819,2.666,4.965,3.781,6.814a24.45,24.45,0,0,0-9.478,6.886,2.2,2.2,0,0,0-.533,1.352,2.176,2.176,0,0,0,2.225,2.224,2.068,2.068,0,0,0,1.622-.943,20.387,20.387,0,0,1,8.542-5.89c4.886,6.983,9.714,10.11,15.551,10.11,6.623,0,9.638-3.8,9.638-7.322C356.18,484.253,354.845,477.859,342.471,477.859Zm4.2,12.08c-4.143,0-7.688-2.173-11.323-6.993a35,35,0,0,1,7.186-.7c4.149,0,9.094.808,9.094,4.659C351.631,489.412,348.936,489.94,346.674,489.94Zm-31.058-20.652,3.441-7.416,3.545,7.416Z" transform="translate(-30.482 2.208)" fill="#3b1f13"/>
    <g id="그룹_1" data-name="그룹 1" transform="translate(42.53 461.706)">
      <path id="패스_12" data-name="패스 12" d="M54.371,471.068a20.353,20.353,0,0,1-8.547-1.815,2.274,2.274,0,0,1,2.042-4.063,16.46,16.46,0,0,0,17.208-2.648,2.273,2.273,0,1,1,2.858,3.536A21.2,21.2,0,0,1,54.371,471.068Z" transform="translate(-44.574 -462.035)" fill="#3b1f13"/>
    </g>
  </g>
</svg>
