<svg xmlns="http://www.w3.org/2000/svg" width="1504" height="45" viewBox="0 0 1504 45">
  <g id="sub02_10_line" transform="translate(-208 -8429.228)">
    <text id="_02_title02" data-name="02_title02" transform="translate(765 8465.228)" fill="#3b1f13" font-size="32" font-family="OpenSans-ExtraBold, Open Sans" font-weight="800"><tspan x="0" y="0">POSTER FOR A PRODUCT</tspan></text>
    <g id="그룹_298" data-name="그룹 298" transform="translate(1 8331.228)">
      <g id="그룹_249" data-name="그룹 249" transform="translate(364.51 100) rotate(90)">
        <path id="패스_210" data-name="패스 210" d="M3999.57,1579.312a8.413,8.413,0,0,0,12.517,0c3.858-4.485,1.362-10.485.2-12.461-4.077-6.947-6.461-11.761-6.461-11.761s-2.386,4.814-6.46,11.761C3998.208,1568.827,3995.714,1574.827,3999.57,1579.312Z" transform="translate(-3986.508 -1426.592)" fill="none" stroke="#3b1f13" stroke-linecap="round" stroke-linejoin="round" stroke-width="4"/>
        <path id="패스_211" data-name="패스 211" d="M3995.552,1503.34v.01a12.236,12.236,0,0,1,12.235,12.237h.01a12.237,12.237,0,0,1,12.237-12.237v-.01a12.237,12.237,0,0,1-12.237-12.235h-.01A12.236,12.236,0,0,1,3995.552,1503.34Z" transform="translate(-3988.47 -1491.106)" fill="none" stroke="#3b1f13" stroke-linecap="round" stroke-linejoin="round" stroke-width="4"/>
        <path id="패스_212" data-name="패스 212" d="M3992.026,1547.505v.038c10.666,0,19.313,19.872,19.313,44.385h.016c0-24.513,8.646-44.385,19.312-44.385v-.038c-10.666,0-19.312-19.872-19.312-44.383h-.016C4011.339,1527.633,4002.691,1547.505,3992.026,1547.505Z" transform="translate(-3992.026 -1478.99)" fill="none" stroke="#3b1f13" stroke-linecap="round" stroke-linejoin="round" stroke-width="4"/>
        <line id="선_29" data-name="선 29" y1="15.56" transform="translate(19.321 112.937)" fill="none" stroke="#3b1f13" stroke-linecap="round" stroke-linejoin="round" stroke-width="4"/>
        <path id="패스_225" data-name="패스 225" d="M3995.552,1503.34v.01a12.236,12.236,0,0,1,12.235,12.237h.01a12.237,12.237,0,0,1,12.237-12.237v-.01a12.237,12.237,0,0,1-12.237-12.235h-.01A12.236,12.236,0,0,1,3995.552,1503.34Z" transform="translate(-3988.47 -1789.106)" fill="none" stroke="#3b1f13" stroke-linecap="round" stroke-linejoin="round" stroke-width="4"/>
      </g>
      <path id="패스_222" data-name="패스 222" d="M0,175.309v250" transform="translate(785.309 119.327) rotate(90)" fill="none" stroke="#3b1f13" stroke-linecap="round" stroke-width="4"/>
    </g>
    <g id="그룹_299" data-name="그룹 299" transform="translate(1919 8569.868) rotate(180)">
      <g id="그룹_249-2" data-name="그룹 249" transform="translate(364.51 100) rotate(90)">
        <path id="패스_210-2" data-name="패스 210" d="M3999.57,1579.312a8.413,8.413,0,0,0,12.517,0c3.858-4.485,1.362-10.485.2-12.461-4.077-6.947-6.461-11.761-6.461-11.761s-2.386,4.814-6.46,11.761C3998.208,1568.827,3995.714,1574.827,3999.57,1579.312Z" transform="translate(-3986.508 -1426.592)" fill="none" stroke="#3b1f13" stroke-linecap="round" stroke-linejoin="round" stroke-width="4"/>
        <path id="패스_211-2" data-name="패스 211" d="M3995.552,1503.34v.01a12.236,12.236,0,0,1,12.235,12.237h.01a12.237,12.237,0,0,1,12.237-12.237v-.01a12.237,12.237,0,0,1-12.237-12.235h-.01A12.236,12.236,0,0,1,3995.552,1503.34Z" transform="translate(-3988.47 -1491.106)" fill="none" stroke="#3b1f13" stroke-linecap="round" stroke-linejoin="round" stroke-width="4"/>
        <path id="패스_212-2" data-name="패스 212" d="M3992.026,1547.505v.038c10.666,0,19.313,19.872,19.313,44.385h.016c0-24.513,8.646-44.385,19.312-44.385v-.038c-10.666,0-19.312-19.872-19.312-44.383h-.016C4011.339,1527.633,4002.691,1547.505,3992.026,1547.505Z" transform="translate(-3992.026 -1478.99)" fill="none" stroke="#3b1f13" stroke-linecap="round" stroke-linejoin="round" stroke-width="4"/>
        <line id="선_29-2" data-name="선 29" y1="15.56" transform="translate(19.321 112.937)" fill="none" stroke="#3b1f13" stroke-linecap="round" stroke-linejoin="round" stroke-width="4"/>
        <path id="패스_225-2" data-name="패스 225" d="M3995.552,1503.34v.01a12.236,12.236,0,0,1,12.235,12.237h.01a12.237,12.237,0,0,1,12.237-12.237v-.01a12.237,12.237,0,0,1-12.237-12.235h-.01A12.236,12.236,0,0,1,3995.552,1503.34Z" transform="translate(-3988.47 -1789.106)" fill="none" stroke="#3b1f13" stroke-linecap="round" stroke-linejoin="round" stroke-width="4"/>
      </g>
      <path id="패스_222-2" data-name="패스 222" d="M0,175.309v250" transform="translate(785.309 119.327) rotate(90)" fill="none" stroke="#3b1f13" stroke-linecap="round" stroke-width="4"/>
    </g>
  </g>
</svg>
